<svg width="300" height="340" viewBox="0 0 300 340" fill="none" xmlns="http://www.w3.org/2000/svg">
<g clip-path="url(#clip0_6_13)">
<g clip-path="url(#clip1_6_13)">
<g clip-path="url(#clip2_6_13)">
<path d="M150 321.111C232.742 321.111 300 253.355 300 170C300 86.6452 232.742 18.8889 150 18.8889C67.2581 18.8889 0 86.6452 0 170C0 253.355 67.2581 321.111 150 321.111ZM154.838 311.07V301.32C222.967 298.785 277.838 243.508 280.355 174.874H290.033C287.516 248.968 228.387 308.535 154.838 311.07ZM154.838 28.9302C228.387 31.4651 287.516 91.0322 290.033 165.126H280.355C277.838 96.492 222.967 41.2146 154.838 38.6798V28.9302ZM270.968 170C270.968 237.172 216.677 291.864 150 291.864C83.3222 291.864 29.0325 237.171 29.0325 170C29.0325 102.828 83.3231 48.1365 150 48.1365C216.678 48.1365 270.968 102.829 270.968 170ZM145.162 28.9302V38.6798C77.0325 41.2146 22.1616 96.492 19.6453 165.126H9.9675C12.4837 91.0322 71.6128 31.4651 145.162 28.9302ZM19.6453 174.874C22.1616 243.508 77.0325 298.785 145.162 301.32V311.07C71.6128 308.535 12.4837 248.968 9.9675 174.874H19.6453Z" fill="#1EBBD7"/>
<g clip-path="url(#clip3_6_13)">
<g clip-path="url(#clip4_6_13)">
<g clip-path="url(#clip5_6_13)">
<g clip-path="url(#clip6_6_13)">
<g clip-path="url(#clip7_6_13)">
<g clip-path="url(#clip8_6_13)">
<path d="M82.995 153.715V227.91C80.2238 227.552 74.871 227.373 66.9365 227.373H60.0086V110.802C63.7035 111.041 67.7773 111.16 72.2301 111.16C76.6829 111.16 79.833 110.921 81.6805 110.444L110.849 160.336L138.845 110.444C140.692 110.921 144.221 111.16 149.432 111.16C154.642 111.16 159.095 111.041 162.79 110.802V227.373H155.862C147.928 227.373 142.575 227.552 139.804 227.91V149.599L111.453 200.709L82.995 153.715ZM217.005 189.434V110.73C220.582 111.017 223.187 111.16 224.822 111.16H231.572C234.414 111.16 237.221 110.921 239.992 110.444V188.754C239.992 201.568 236.605 211.649 229.831 218.998C223.412 226.037 214.743 229.556 203.825 229.556C196.293 229.556 189.993 228.041 184.924 225.011C183.005 223.913 181.087 222.577 179.168 221.002V195.734L179.772 195.555C182.212 199.396 185.066 202.546 188.335 205.003C191.603 207.461 195.665 208.69 200.521 208.69C211.51 208.69 217.005 202.271 217.005 189.434Z" fill="#1EBBD7"/>
</g>
</g>
</g>
</g>
</g>
</g>
</g>
</g>
</g>
<defs>
<clipPath id="clip0_6_13">
<rect width="300" height="340" fill="white"/>
</clipPath>
<clipPath id="clip1_6_13">
<rect width="300" height="340" fill="white"/>
</clipPath>
<clipPath id="clip2_6_13">
<rect width="300" height="340" fill="white"/>
</clipPath>
<clipPath id="clip3_6_13">
<rect width="180" height="119.112" fill="white" transform="translate(60 110.444)"/>
</clipPath>
<clipPath id="clip4_6_13">
<rect width="180" height="119.112" fill="white" transform="translate(60 110.444)"/>
</clipPath>
<clipPath id="clip5_6_13">
<rect width="180" height="119.112" fill="white" transform="translate(60 110.444)"/>
</clipPath>
<clipPath id="clip6_6_13">
<rect width="180" height="119.112" fill="white" transform="translate(60 110.444)"/>
</clipPath>
<clipPath id="clip7_6_13">
<rect width="180" height="119.112" fill="white" transform="translate(60 110.444)"/>
</clipPath>
<clipPath id="clip8_6_13">
<rect width="180" height="119.112" fill="white" transform="translate(60 110.444)"/>
</clipPath>
</defs>
</svg>
